<?xml version="1.0" encoding="UTF-8"?>
<!DOCTYPE svg PUBLIC "-//W3C//DTD SVG 1.1//EN" "http://www.w3.org/Graphics/SVG/1.1/DTD/svg11.dtd">
<svg xmlns="http://www.w3.org/2000/svg" version="1.1" width="299px" height="299px" style="shape-rendering:geometricPrecision; text-rendering:geometricPrecision; image-rendering:optimizeQuality; fill-rule:evenodd; clip-rule:evenodd" xmlns:xlink="http://www.w3.org/1999/xlink">
<g><path style="opacity:0.989" fill="#f3f3f3" d="M 144.5,2.5 C 147.518,2.33537 150.518,2.50204 153.5,3C 194.912,26.4545 236.079,50.2878 277,74.5C 277.333,75.8333 277.667,77.1667 278,78.5C 278.667,124.833 278.667,171.167 278,217.5C 277.64,219.608 276.973,221.608 276,223.5C 236.833,246 197.667,268.5 158.5,291C 151.833,295.667 145.167,295.667 138.5,291C 100.757,268.933 62.7572,247.267 24.5,226C 22.4299,225.052 20.9299,223.552 20,221.5C 19.0097,172.084 19.343,122.75 21,73.5C 62.1478,49.68 103.314,26.0133 144.5,2.5 Z"/></g>
<g><path style="opacity:0.03" fill="#000000" d="M 298.5,20.5 C 298.5,24.5 298.5,28.5 298.5,32.5C 290.674,37.2562 285.341,35.2562 282.5,26.5C 285.341,17.7438 290.674,15.7438 298.5,20.5 Z"/></g>
<g><path style="opacity:1" fill="#2b631a" d="M 150.5,54.5 C 155.605,56.8869 160.605,59.5536 165.5,62.5C 166.665,70.4792 166.832,78.4792 166,86.5C 160.505,82.8357 154.671,79.8357 148.5,77.5C 147.857,69.8501 147.523,62.1834 147.5,54.5C 148.5,54.5 149.5,54.5 150.5,54.5 Z"/></g>
<g><path style="opacity:1" fill="#387820" d="M 150.5,54.5 C 149.5,54.5 148.5,54.5 147.5,54.5C 147.523,62.1834 147.857,69.8501 148.5,77.5C 144.684,78.9094 141.017,80.576 137.5,82.5C 137.167,75.1667 136.833,67.8333 136.5,60.5C 139.598,58.1084 142.931,55.9417 146.5,54C 148.066,53.235 149.399,53.4017 150.5,54.5 Z"/></g>
<g><path style="opacity:1" fill="#448c25" d="M 136.5,60.5 C 136.833,67.8333 137.167,75.1667 137.5,82.5C 120.814,92.9334 103.981,103.267 87,113.5C 86.3333,137.5 86.3333,161.5 87,185.5C 102.147,194.652 117.314,203.652 132.5,212.5C 131.685,219.206 130.685,225.873 129.5,232.5C 108.393,221.111 87.3932,209.445 66.5,197.5C 65.3334,165.172 65.1668,132.838 66,100.5C 89.3111,86.7632 112.811,73.4298 136.5,60.5 Z"/></g>
<g><path style="opacity:1" fill="#7ab93a" d="M 212.5,207.5 C 212.833,183.824 212.5,160.157 211.5,136.5C 210.893,136.624 210.56,136.957 210.5,137.5C 197.109,145.281 183.609,152.948 170,160.5C 169.833,184.507 169.333,208.507 168.5,232.5C 162.298,236.101 155.964,239.434 149.5,242.5C 148.508,235.352 148.175,228.019 148.5,220.5C 148.333,196.498 148.5,172.498 149,148.5C 176.526,132.157 204.36,116.49 232.5,101.5C 232.667,132.835 232.5,164.168 232,195.5C 225.89,200.138 219.39,204.138 212.5,207.5 Z"/></g>
<g><path style="opacity:1" fill="#a4cd7a" d="M 210.5,137.5 C 210.56,136.957 210.893,136.624 211.5,136.5C 212.5,160.157 212.833,183.824 212.5,207.5C 211.833,184.167 211.167,160.833 210.5,137.5 Z"/></g>
<g><path style="opacity:1" fill="#33701d" d="M 132.5,212.5 C 137.667,214.916 142.667,217.582 147.5,220.5C 145.665,221.122 144.498,222.456 144,224.5C 143.023,229.793 142.523,235.126 142.5,240.5C 137.963,238.07 133.63,235.403 129.5,232.5C 130.685,225.873 131.685,219.206 132.5,212.5 Z"/></g>
<g><path style="opacity:1" fill="#2b621a" d="M 147.5,220.5 C 147.833,220.5 148.167,220.5 148.5,220.5C 148.175,228.019 148.508,235.352 149.5,242.5C 149.265,243.097 148.765,243.43 148,243.5C 145.915,242.876 144.082,241.876 142.5,240.5C 142.523,235.126 143.023,229.793 144,224.5C 144.498,222.456 145.665,221.122 147.5,220.5 Z"/></g>
</svg>
